Exact Audio Copy V0.99 prebeta 1 from 25. May 2007

EAC 抓取日志文件从9. 十月 2010, 2:32

屠洪纲 / 20世纪中华歌坛名人百集珍藏版

使用驱动器  ：PIONEER DVD-RW  DVR-115   Adapter: 0  ID: 0

读取模式     : 保护
使用精确流   : 是
废除音频缓冲 : 是
使用 C2 指针 : 否

读取偏移校正                   : 38
读取 Lead-In 和 Lead-Out       : 否
用静音填充抓取中丢失偏移的采样 : 是
去除首尾静音块                 : 否
已用接口                       : 已安装外部 ASPI 接口

所用输出格式 : 内部 WAV 函数
样本格式     : 44.100 Hz;16 Bit;立体声


被抓轨 CD 的 TOC

     音轨 |   开始   |   长度   | 起始扇区 | 结尾扇区 
    --------------------------------------------------
       1  |  0:00.32 |  6:34.23 |      32  |   29604  
       2  |  6:34.55 |  4:24.67 |   29605  |   49471  
       3  | 10:59.47 |  4:45.03 |   49472  |   70849  
       4  | 15:44.50 |  5:15.60 |   70850  |   94534  
       5  | 21:00.35 |  4:52.15 |   94535  |  116449  
       6  | 25:52.50 |  4:13.60 |  116450  |  135484  
       7  | 30:06.35 |  4:05.05 |  135485  |  153864  
       8  | 34:11.40 |  3:33.72 |  153865  |  169911  
       9  | 37:45.37 |  4:27.15 |  169912  |  189951  
      10  | 42:12.52 |  3:54.60 |  189952  |  207561  
      11  | 46:07.37 |  3:46.18 |  207562  |  224529  
      12  | 49:53.55 |  4:18.05 |  224530  |  243884  
      13  | 54:11.60 |  3:47.62 |  243885  |  260971  
      14  | 57:59.47 |  4:01.10 |  260972  |  279056  


范围状态及错误

已选择范围

     文件名 E:\文件夹\20世纪中华歌坛名人百集珍藏版-屠洪纲[lwg188原创]\屠洪纲 - 20世纪中华歌坛名人百集珍藏版.wav

     峰值电平 100.0 %
     范围质量 99.9 %
     复制 CRC FBCF3071
     复制成功

没有错误发生

状态报告结尾
